<svg width="147" height="21" viewBox="0 0 147 21" fill="none" xmlns="http://www.w3.org/2000/svg">
<path d="M6.86133 4.03711C5.72201 4.03711 4.83984 4.4668 4.21484 5.32617C3.58984 6.17904 3.27734 7.37044 3.27734 8.90039C3.27734 12.084 4.47201 13.6758 6.86133 13.6758C7.86393 13.6758 9.07812 13.4251 10.5039 12.9238V15.4629C9.33203 15.9512 8.02344 16.1953 6.57812 16.1953C4.5013 16.1953 2.91276 15.5671 1.8125 14.3105C0.71224 13.0475 0.162109 11.2376 0.162109 8.88086C0.162109 7.39648 0.432292 6.09766 0.972656 4.98438C1.51302 3.86458 2.28776 3.00846 3.29688 2.41602C4.3125 1.81706 5.50065 1.51758 6.86133 1.51758C8.24805 1.51758 9.64128 1.85286 11.041 2.52344L10.0645 4.98438C9.5306 4.73047 8.99349 4.50911 8.45312 4.32031C7.91276 4.13151 7.38216 4.03711 6.86133 4.03711ZM15.6895 10.5215C15.6895 11.6022 15.8652 12.4193 16.2168 12.9727C16.5749 13.526 17.1543 13.8027 17.9551 13.8027C18.7493 13.8027 19.319 13.5293 19.6641 12.9824C20.0156 12.429 20.1914 11.6087 20.1914 10.5215C20.1914 9.44076 20.0156 8.63021 19.6641 8.08984C19.3125 7.54948 18.7363 7.2793 17.9355 7.2793C17.1413 7.2793 16.5684 7.54948 16.2168 8.08984C15.8652 8.6237 15.6895 9.43424 15.6895 10.5215ZM23.2383 10.5215C23.2383 12.2988 22.7695 13.6888 21.832 14.6914C20.8945 15.694 19.5892 16.1953 17.916 16.1953C16.8678 16.1953 15.9434 15.9674 15.1426 15.5117C14.3418 15.0495 13.7266 14.3887 13.2969 13.5293C12.8672 12.6699 12.6523 11.6673 12.6523 10.5215C12.6523 8.73763 13.1178 7.35091 14.0488 6.36133C14.9798 5.37174 16.2884 4.87695 17.9746 4.87695C19.0228 4.87695 19.9473 5.10482 20.748 5.56055C21.5488 6.01628 22.1641 6.67057 22.5938 7.52344C23.0234 8.3763 23.2383 9.37565 23.2383 10.5215ZM31.6953 16.1953C30.4128 16.1953 29.4069 15.7298 28.6777 14.7988H28.5215C28.6257 15.7103 28.6777 16.2376 28.6777 16.3809V20.8047H25.6992V5.08203H28.1211L28.541 6.49805H28.6777C29.3743 5.41732 30.4062 4.87695 31.7734 4.87695C33.0625 4.87695 34.0716 5.375 34.8008 6.37109C35.5299 7.36719 35.8945 8.75065 35.8945 10.5215C35.8945 11.6868 35.722 12.6992 35.377 13.5586C35.0384 14.418 34.5534 15.0723 33.9219 15.5215C33.2904 15.9707 32.5482 16.1953 31.6953 16.1953ZM30.8164 7.25977C30.0807 7.25977 29.5436 7.48763 29.2051 7.94336C28.8665 8.39258 28.6908 9.13802 28.6777 10.1797V10.502C28.6777 11.6738 28.8503 12.5137 29.1953 13.0215C29.5469 13.5293 30.1003 13.7832 30.8555 13.7832C32.1901 13.7832 32.8574 12.6829 32.8574 10.4824C32.8574 9.4082 32.6914 8.60417 32.3594 8.07031C32.0339 7.52995 31.5195 7.25977 30.8164 7.25977ZM36.793 5.08203H40.0547L42.1152 11.2246C42.291 11.7585 42.4115 12.39 42.4766 13.1191H42.5352C42.6068 12.4486 42.7467 11.8171 42.9551 11.2246L44.9766 5.08203H48.1699L43.5508 17.3965C43.1276 18.5358 42.5221 19.3887 41.7344 19.9551C40.9531 20.5215 40.0384 20.8047 38.9902 20.8047C38.4759 20.8047 37.9714 20.7493 37.4766 20.6387V18.2754C37.8346 18.36 38.2253 18.4023 38.6484 18.4023C39.1758 18.4023 39.6348 18.2396 40.0254 17.9141C40.4225 17.5951 40.7318 17.11 40.9531 16.459L41.1289 15.9219L36.793 5.08203ZM55.8359 4.87695C56.2396 4.87695 56.5749 4.90625 56.8418 4.96484L56.6172 7.75781C56.3763 7.69271 56.0833 7.66016 55.7383 7.66016C54.7878 7.66016 54.0456 7.9043 53.5117 8.39258C52.9844 8.88086 52.7207 9.56445 52.7207 10.4434V16H49.7422V5.08203H51.998L52.4375 6.91797H52.584C52.9225 6.30599 53.3783 5.81445 53.9512 5.44336C54.5306 5.06576 55.1589 4.87695 55.8359 4.87695ZM58.6973 2.25977C58.6973 1.28971 59.2376 0.804688 60.3184 0.804688C61.3991 0.804688 61.9395 1.28971 61.9395 2.25977C61.9395 2.72201 61.8027 3.08333 61.5293 3.34375C61.2624 3.59766 60.8587 3.72461 60.3184 3.72461C59.2376 3.72461 58.6973 3.23633 58.6973 2.25977ZM61.8027 16H58.8242V5.08203H61.8027V16ZM74.4395 5.08203V6.5957L72.7305 7.03516C73.043 7.52344 73.1992 8.07031 73.1992 8.67578C73.1992 9.84766 72.7891 10.7624 71.9688 11.4199C71.1549 12.071 70.0221 12.3965 68.5703 12.3965L68.0332 12.3672L67.5938 12.3184C67.2878 12.5527 67.1348 12.8132 67.1348 13.0996C67.1348 13.5293 67.6816 13.7441 68.7754 13.7441H70.6309C71.8288 13.7441 72.7402 14.0013 73.3652 14.5156C73.9967 15.0299 74.3125 15.7852 74.3125 16.7812C74.3125 18.0573 73.7786 19.0469 72.7109 19.75C71.6497 20.4531 70.123 20.8047 68.1309 20.8047C66.6074 20.8047 65.4421 20.5378 64.6348 20.0039C63.834 19.4766 63.4336 18.7344 63.4336 17.7773C63.4336 17.1198 63.6387 16.5697 64.0488 16.127C64.459 15.6842 65.0612 15.3685 65.8555 15.1797C65.5495 15.0495 65.2826 14.8379 65.0547 14.5449C64.8268 14.2454 64.7129 13.9297 64.7129 13.5977C64.7129 13.181 64.8333 12.8359 65.0742 12.5625C65.3151 12.2826 65.6634 12.0091 66.1191 11.7422C65.5462 11.4948 65.0905 11.0977 64.752 10.5508C64.4199 10.0039 64.2539 9.35938 64.2539 8.61719C64.2539 7.42578 64.6413 6.50456 65.416 5.85352C66.1908 5.20247 67.2975 4.87695 68.7363 4.87695C69.0423 4.87695 69.4036 4.90625 69.8203 4.96484C70.2435 5.01693 70.5137 5.05599 70.6309 5.08203H74.4395ZM66.0117 17.543C66.0117 17.9531 66.207 18.2754 66.5977 18.5098C66.9948 18.7441 67.5482 18.8613 68.2578 18.8613C69.3255 18.8613 70.1621 18.7148 70.7676 18.4219C71.373 18.1289 71.6758 17.7285 71.6758 17.2207C71.6758 16.8105 71.4967 16.5273 71.1387 16.3711C70.7806 16.2148 70.2272 16.1367 69.4785 16.1367H67.9355C67.3887 16.1367 66.9297 16.2637 66.5586 16.5176C66.194 16.778 66.0117 17.1198 66.0117 17.543ZM67.0957 8.65625C67.0957 9.2487 67.2292 9.71745 67.4961 10.0625C67.7695 10.4076 68.1829 10.5801 68.7363 10.5801C69.2962 10.5801 69.7064 10.4076 69.9668 10.0625C70.2272 9.71745 70.3574 9.2487 70.3574 8.65625C70.3574 7.34115 69.8171 6.68359 68.7363 6.68359C67.6426 6.68359 67.0957 7.34115 67.0957 8.65625ZM86.3242 16H83.3457V9.62305C83.3457 8.04753 82.7598 7.25977 81.5879 7.25977C80.7546 7.25977 80.1523 7.54297 79.7812 8.10938C79.4102 8.67578 79.2246 9.59375 79.2246 10.8633V16H76.2461V0.804688H79.2246V3.90039C79.2246 4.14128 79.2018 4.70768 79.1562 5.59961L79.0879 6.47852H79.2441C79.9082 5.41081 80.9629 4.87695 82.4082 4.87695C83.6908 4.87695 84.6641 5.22201 85.3281 5.91211C85.9922 6.60221 86.3242 7.5918 86.3242 8.88086V16ZM93.9902 13.8223C94.5111 13.8223 95.1361 13.7083 95.8652 13.4805V15.6973C95.123 16.0293 94.2116 16.1953 93.1309 16.1953C91.9395 16.1953 91.0703 15.8958 90.5234 15.2969C89.9831 14.6914 89.7129 13.7865 89.7129 12.582V7.31836H88.2871V6.05859L89.9277 5.0625L90.7871 2.75781H92.6914V5.08203H95.748V7.31836H92.6914V12.582C92.6914 13.0052 92.8086 13.3177 93.043 13.5195C93.2839 13.7214 93.5996 13.8223 93.9902 13.8223ZM112.496 16H102.516V13.9004L106.1 10.2773C107.161 9.1901 107.854 8.43815 108.18 8.02148C108.505 7.59831 108.74 7.20768 108.883 6.84961C109.026 6.49154 109.098 6.12044 109.098 5.73633C109.098 5.16341 108.938 4.73698 108.619 4.45703C108.307 4.17708 107.887 4.03711 107.359 4.03711C106.806 4.03711 106.269 4.16406 105.748 4.41797C105.227 4.67188 104.684 5.0332 104.117 5.50195L102.477 3.55859C103.18 2.95964 103.762 2.53646 104.225 2.28906C104.687 2.04167 105.191 1.85286 105.738 1.72266C106.285 1.58594 106.897 1.51758 107.574 1.51758C108.466 1.51758 109.254 1.68034 109.938 2.00586C110.621 2.33138 111.152 2.78711 111.529 3.37305C111.907 3.95898 112.096 4.62956 112.096 5.38477C112.096 6.04232 111.979 6.66081 111.744 7.24023C111.516 7.81315 111.158 8.40234 110.67 9.00781C110.188 9.61328 109.335 10.4759 108.111 11.5957L106.275 13.3242V13.4609H112.496V16ZM123.844 8.86133C123.844 11.3548 123.434 13.2005 122.613 14.3984C121.799 15.5964 120.543 16.1953 118.844 16.1953C117.197 16.1953 115.953 15.5768 115.113 14.3398C114.28 13.1029 113.863 11.2767 113.863 8.86133C113.863 6.3418 114.27 4.48633 115.084 3.29492C115.898 2.09701 117.151 1.49805 118.844 1.49805C120.491 1.49805 121.734 2.12305 122.574 3.37305C123.421 4.62305 123.844 6.45247 123.844 8.86133ZM116.861 8.86133C116.861 10.6126 117.011 11.8691 117.311 12.6309C117.617 13.3861 118.128 13.7637 118.844 13.7637C119.547 13.7637 120.055 13.3796 120.367 12.6113C120.68 11.8431 120.836 10.5931 120.836 8.86133C120.836 7.11003 120.676 5.85352 120.357 5.0918C120.045 4.32357 119.54 3.93945 118.844 3.93945C118.134 3.93945 117.626 4.32357 117.32 5.0918C117.014 5.85352 116.861 7.11003 116.861 8.86133ZM135.348 16H125.367V13.9004L128.951 10.2773C130.012 9.1901 130.706 8.43815 131.031 8.02148C131.357 7.59831 131.591 7.20768 131.734 6.84961C131.878 6.49154 131.949 6.12044 131.949 5.73633C131.949 5.16341 131.79 4.73698 131.471 4.45703C131.158 4.17708 130.738 4.03711 130.211 4.03711C129.658 4.03711 129.12 4.16406 128.6 4.41797C128.079 4.67188 127.535 5.0332 126.969 5.50195L125.328 3.55859C126.031 2.95964 126.614 2.53646 127.076 2.28906C127.538 2.04167 128.043 1.85286 128.59 1.72266C129.137 1.58594 129.749 1.51758 130.426 1.51758C131.318 1.51758 132.105 1.68034 132.789 2.00586C133.473 2.33138 134.003 2.78711 134.381 3.37305C134.758 3.95898 134.947 4.62956 134.947 5.38477C134.947 6.04232 134.83 6.66081 134.596 7.24023C134.368 7.81315 134.01 8.40234 133.521 9.00781C133.04 9.61328 132.187 10.4759 130.963 11.5957L129.127 13.3242V13.4609H135.348V16ZM146.695 8.86133C146.695 11.3548 146.285 13.2005 145.465 14.3984C144.651 15.5964 143.395 16.1953 141.695 16.1953C140.048 16.1953 138.805 15.5768 137.965 14.3398C137.132 13.1029 136.715 11.2767 136.715 8.86133C136.715 6.3418 137.122 4.48633 137.936 3.29492C138.749 2.09701 140.003 1.49805 141.695 1.49805C143.342 1.49805 144.586 2.12305 145.426 3.37305C146.272 4.62305 146.695 6.45247 146.695 8.86133ZM139.713 8.86133C139.713 10.6126 139.863 11.8691 140.162 12.6309C140.468 13.3861 140.979 13.7637 141.695 13.7637C142.398 13.7637 142.906 13.3796 143.219 12.6113C143.531 11.8431 143.688 10.5931 143.688 8.86133C143.688 7.11003 143.528 5.85352 143.209 5.0918C142.896 4.32357 142.392 3.93945 141.695 3.93945C140.986 3.93945 140.478 4.32357 140.172 5.0918C139.866 5.85352 139.713 7.11003 139.713 8.86133Z" fill="white"/>
</svg>
